<svg width="46" height="45" viewBox="0 0 46 45" fill="none" xmlns="http://www.w3.org/2000/svg">
<path d="M22.7368 0C10.1783 0 0 10.0723 0 22.5C0 34.9277 10.1783 45 22.7368 45C35.2954 45 45.4737 34.9277 45.4737 22.5C45.4737 10.0723 35.2954 0 22.7368 0ZM36.9296 36.5361C35.0822 38.3643 32.9418 39.7969 30.5526 40.79C28.0836 41.8271 25.4546 42.3457 22.7368 42.3457C20.028 42.3457 17.399 41.8184 14.9211 40.79C12.5319 39.7881 10.3826 38.3555 8.54408 36.5361C6.69671 34.708 5.24901 32.5898 4.24539 30.2256C3.19737 27.7822 2.66447 25.1807 2.66447 22.5C2.66447 19.8193 3.19737 17.2178 4.23651 14.7656C5.24901 12.4014 6.69671 10.2744 8.5352 8.45508C10.3914 6.62695 12.5319 5.19434 14.9211 4.19238C17.399 3.16406 20.028 2.63672 22.7368 2.63672C25.4457 2.63672 28.0747 3.16406 30.5526 4.19238C32.9418 5.19434 35.0911 6.62695 36.9296 8.44629C38.777 10.2744 40.2247 12.3926 41.2283 14.7568C42.2763 17.2002 42.8003 19.8018 42.8003 22.4912C42.8003 25.1719 42.2674 27.7734 41.2283 30.2256C40.2158 32.5898 38.7681 34.7168 36.9296 36.5361Z" fill="#1646D9"/>
<path d="M31.9204 16.0225H25.8987V17.7539H31.9204V16.0225Z" fill="#1646D9"/>
<path d="M33.1815 20.7245C32.7108 20.0301 32.1157 19.5204 31.3875 19.204C30.668 18.8788 29.8509 18.7206 28.9361 18.7294C27.4174 18.7294 26.1828 19.204 25.2236 20.1532C24.2733 21.1024 23.7937 22.4647 23.7937 24.2489C23.7937 26.1473 24.3266 27.5184 25.3835 28.3622C26.4404 29.2059 27.6572 29.6278 29.0427 29.6278C30.7213 29.6278 32.018 29.1268 32.9506 28.1249C33.5457 27.492 33.8832 26.868 33.9542 26.2616H31.1832C31.0233 26.5692 30.8368 26.8065 30.6236 26.9735C30.2328 27.2899 29.7266 27.4481 29.1138 27.4481C28.5276 27.4481 28.0302 27.3163 27.6128 27.0614C26.9289 26.6483 26.5736 25.9188 26.5292 24.8905H34.0963C34.1141 24.0028 34.0786 23.326 34.0075 22.8514C33.8832 22.0428 33.6078 21.3309 33.1815 20.7245ZM26.6003 23.1151C26.7069 22.4471 26.9467 21.9198 27.3286 21.5243C27.7105 21.1376 28.2523 20.9354 28.945 20.9354C29.5845 20.9354 30.1263 21.12 30.5615 21.4891C30.9878 21.8583 31.2276 22.4032 31.2809 23.1151H26.6003Z" fill="#1646D9"/>
<path d="M20.7207 21.8232C21.1914 21.5859 21.5556 21.3223 21.7954 21.0322C22.2306 20.5137 22.4437 19.8281 22.4437 18.9844C22.4437 18.1582 22.2306 17.4463 21.8043 16.8574C21.0849 15.8906 19.8681 15.3984 18.1628 15.3721H11.3684V29.2852H17.6921C18.4115 29.2852 19.0687 29.2236 19.6816 29.1006C20.2944 28.9688 20.8273 28.7402 21.2714 28.3975C21.671 28.1074 21.9997 27.7383 22.2661 27.3076C22.6924 26.6572 22.8967 25.9189 22.8967 25.0928C22.8967 24.293 22.7102 23.6162 22.346 23.0537C21.9819 22.4912 21.4401 22.0869 20.7207 21.8232ZM14.1661 17.7891H17.2214C17.8964 17.7891 18.447 17.8682 18.8822 18.0088C19.3885 18.2197 19.6372 18.6416 19.6372 19.292C19.6372 19.8721 19.4506 20.2852 19.0687 20.5137C18.6868 20.7422 18.1983 20.8564 17.5855 20.8564H14.1661V17.7891ZM19.0066 26.6133C18.6691 26.7803 18.1983 26.8594 17.5855 26.8594H14.1661V23.1504H17.6299C18.2339 23.1592 18.6957 23.2383 19.0332 23.3877C19.6372 23.6602 19.9303 24.1611 19.9303 24.8818C19.9303 25.7344 19.6283 26.3057 19.0066 26.6133Z" fill="#1646D9"/>
</svg>
