<svg width="165" height="62" viewBox="0 0 165 62" fill="none" xmlns="http://www.w3.org/2000/svg">
<path d="M13.8568 42.5507C13.8568 45.4224 13.3378 47.7924 12.2998 49.6607C11.2964 51.5291 9.94708 52.9822 8.25174 54.0202C6.591 55.0928 4.60156 56.0096 2.28344 56.7708L-7.99364e-05 50.7506C1.52227 50.1624 2.66403 49.4877 3.4252 48.7266C4.18638 47.9654 4.68806 47.0831 4.93025 46.0798C5.20704 45.0764 5.34544 43.7962 5.34544 42.2393V12.0345H13.8568V42.5507ZM38.684 48V32.5862H27.8891V48H19.3778V12.0345H27.8891V25.9432H38.684V12.0345H47.1953V48H38.684ZM91.7406 36.0634C91.7406 38.5199 91.2043 40.7169 90.1318 42.6545C89.0938 44.592 87.5196 46.1144 85.409 47.2215C83.2985 48.3287 80.7209 48.8823 77.6762 48.8823C73.1091 48.8823 69.632 47.7232 67.2446 45.4051C64.8573 43.087 63.6637 39.9731 63.6637 36.0634V12.0345H72.175V35.7001C72.175 38.0182 72.6075 39.7482 73.4724 40.8899C74.372 41.9971 75.7732 42.5507 77.6762 42.5507C79.6137 42.5507 81.015 41.9971 81.8799 40.8899C82.7795 39.7482 83.2293 38.0182 83.2293 35.7001V12.0345H91.7406V36.0634ZM105.461 12.0345V41.2532H119.473L118.591 48H96.9495V12.0345H105.461ZM131.031 12.0345V48H122.52V12.0345H131.031ZM155.629 48L153.761 40.2672H143.277L141.461 48H132.638L143.485 12.0345H153.813L164.659 48H155.629ZM144.73 34.0913H152.307L148.519 18.2104L144.73 34.0913Z" fill="#ECF1FF"/>
<path d="M55.5651 40.5701C55.819 39.7725 56.9475 39.7725 57.2014 40.5701L57.7876 42.4116C57.8761 42.6896 58.0997 42.9036 58.3813 42.9799L60.136 43.4551C60.9815 43.6841 60.9815 44.8836 60.136 45.1126L58.3813 45.5878C58.0997 45.6641 57.8761 45.8781 57.7876 46.1561L57.2014 47.9976C56.9475 48.7952 55.819 48.7952 55.5651 47.9976L54.9789 46.1561C54.8904 45.8781 54.6668 45.6641 54.3853 45.5878L52.6306 45.1126C51.7851 44.8836 51.7851 43.6841 52.6306 43.4551L54.3853 42.9799C54.6668 42.9036 54.8904 42.6896 54.9789 42.4116L55.5651 40.5701Z" fill="#204EDA"/>
</svg>
