<svg width="46" height="45" viewBox="0 0 46 45" fill="none" xmlns="http://www.w3.org/2000/svg">
<g clip-path="url(#clip0_46_784)">
<path d="M16.3777 17.877H11.9458V31.9131H16.3777V17.877Z" fill="#1646D9"/>
<path d="M14.0685 11.25C12.4343 11.25 11.3596 12.2959 11.3596 13.6846C11.3596 15.0469 12.3988 16.1191 14.0063 16.1191H14.0419C15.7116 16.1191 16.7507 15.0381 16.7419 13.6846C16.7063 12.2959 15.7027 11.25 14.0685 11.25Z" fill="#1646D9"/>
<path d="M28.4832 17.7451C25.9431 17.7451 24.3533 19.1162 24.0602 20.083V17.877H19.0776C19.1398 19.0459 19.0776 31.9131 19.0776 31.9131H24.0602V24.3281C24.0602 23.8975 24.0424 23.4756 24.1668 23.1768C24.5043 22.333 25.2415 21.4541 26.5648 21.4541C28.2967 21.4541 29.0783 22.7549 29.0783 24.6533V31.9131H34.1053V24.1084C34.1053 19.7666 31.6362 17.7451 28.4832 17.7451Z" fill="#1646D9"/>
<path d="M22.7368 0C10.1783 0 0 10.0723 0 22.5C0 34.9277 10.1783 45 22.7368 45C35.2954 45 45.4737 34.9277 45.4737 22.5C45.4737 10.0723 35.2954 0 22.7368 0ZM36.9296 36.5361C35.0822 38.3643 32.9418 39.7969 30.5526 40.79C28.0836 41.8271 25.4546 42.3457 22.7368 42.3457C20.028 42.3457 17.399 41.8184 14.9211 40.79C12.5319 39.7881 10.3826 38.3555 8.54408 36.5361C6.69671 34.708 5.24901 32.5898 4.24539 30.2256C3.19737 27.7822 2.66447 25.1807 2.66447 22.5C2.66447 19.8193 3.19737 17.2178 4.23651 14.7656C5.24901 12.4014 6.69671 10.2744 8.5352 8.45508C10.3914 6.62695 12.5319 5.19434 14.9211 4.19238C17.399 3.16406 20.028 2.63672 22.7368 2.63672C25.4457 2.63672 28.0747 3.16406 30.5526 4.19238C32.9418 5.19434 35.0911 6.62695 36.9296 8.44629C38.777 10.2744 40.2247 12.3926 41.2283 14.7568C42.2763 17.2002 42.8003 19.8018 42.8003 22.4912C42.8003 25.1719 42.2674 27.7734 41.2283 30.2256C40.2158 32.5898 38.7681 34.7168 36.9296 36.5361Z" fill="#1646D9"/>
</g>
<defs>
<clipPath id="clip0_46_784">
<rect width="45.4737" height="45" fill="white"/>
</clipPath>
</defs>
</svg>
