<svg preserveAspectRatio="none" width="100%" height="100%" overflow="visible" style="display: block;" viewBox="0 0 45.4737 45" fill="none" xmlns="http://www.w3.org/2000/svg">
<path id="Vector" d="M22.7368 0C10.1783 0 0 10.0723 0 22.5C0 34.9277 10.1783 45 22.7368 45C35.2954 45 45.4737 34.9277 45.4737 22.5C45.4737 10.0723 35.2954 0 22.7368 0ZM36.9296 36.5361C35.0822 38.3643 32.9418 39.7969 30.5526 40.79C28.0836 41.8271 25.4546 42.3457 22.7368 42.3457C20.028 42.3457 17.399 41.8184 14.9211 40.79C12.5319 39.7881 10.3826 38.3555 8.54408 36.5361C6.69671 34.708 5.24901 32.5898 4.24539 30.2256C3.19737 27.7822 2.66447 25.1807 2.66447 22.5C2.66447 19.8193 3.19737 17.2178 4.23651 14.7656C5.24901 12.4014 6.69671 10.2744 8.5352 8.45508C10.3914 6.62695 12.5319 5.19434 14.9211 4.19238C17.399 3.16406 20.028 2.63672 22.7368 2.63672C25.4457 2.63672 28.0747 3.16406 30.5526 4.19238C32.9418 5.19434 35.0911 6.62695 36.9296 8.44629C38.777 10.2744 40.2247 12.3926 41.2283 14.7568C42.2763 17.2002 42.8003 19.8018 42.8003 22.4912C42.8003 25.1719 42.2674 27.7734 41.2283 30.2256C40.2158 32.5898 38.7681 34.7168 36.9296 36.5361Z" fill="var(--fill-0, #1646D9)"/>
</svg>
