<svg width="208" height="194" viewBox="0 0 208 194" fill="none" xmlns="http://www.w3.org/2000/svg">
<rect x="94.9736" y="50.1446" width="163.691" height="42.8997" rx="19.11" transform="rotate(45 94.9736 50.1446)" fill="#1646D9" stroke="white" stroke-width="4.24667"/>
<rect x="94.5239" y="64.1704" width="46.193" height="22.0348" rx="9.55502" transform="rotate(45 94.5239 64.1704)" fill="#BFCEFF" stroke="white" stroke-width="2.12334"/>
<path d="M43.9304 9.72784C44.6443 7.95351 47.1562 7.9535 47.8701 9.72783L54.043 25.0697C54.2733 25.6419 54.7409 26.0857 55.3243 26.2857L71.4472 31.8133C73.3601 32.4691 73.3601 35.1746 71.4472 35.8304L55.3243 41.3579C54.7409 41.5579 54.2733 42.0017 54.043 42.5739L47.8701 57.9158C47.1562 59.6902 44.6443 59.6902 43.9304 57.9158L37.7574 42.5739C37.5272 42.0018 37.0596 41.5579 36.4762 41.3579L20.3533 35.8304C18.4403 35.1746 18.4403 32.4691 20.3533 31.8133L36.4762 26.2857C37.0596 26.0857 37.5272 25.6419 37.7574 25.0697L43.9304 9.72784Z" fill="#1646D9"/>
<path d="M126.068 4.8958C126.782 3.12147 129.294 3.12147 130.008 4.8958L136.181 20.2377C136.411 20.8099 136.879 21.2537 137.462 21.4537L153.585 26.9812C155.498 27.6371 155.498 30.3425 153.585 30.9984L137.462 36.5259C136.879 36.7259 136.411 37.1697 136.181 37.7419L130.008 53.0838C129.294 54.8581 126.782 54.8581 126.068 53.0838L119.895 37.7419C119.665 37.1697 119.197 36.7259 118.614 36.5259L102.491 30.9984C100.578 30.3425 100.578 27.6371 102.491 26.9812L118.614 21.4537C119.197 21.2537 119.665 20.8099 119.895 20.2377L126.068 4.8958Z" fill="#1646D9"/>
<path d="M29.4358 72.5384C30.1497 70.7641 32.6616 70.7641 33.3755 72.5384L39.5484 87.8803C39.7786 88.4525 40.2463 88.8963 40.8297 89.0963L56.9526 94.6238C58.8655 95.2796 58.8655 97.9851 56.9526 98.641L40.8297 104.168C40.2463 104.368 39.7786 104.812 39.5484 105.384L33.3755 120.726C32.6616 122.501 30.1497 122.501 29.4358 120.726L23.2628 105.384C23.0326 104.812 22.565 104.368 21.9816 104.168L5.85868 98.641C3.94571 97.9851 3.94572 95.2796 5.85868 94.6238L21.9816 89.0963C22.565 88.8963 23.0326 88.4525 23.2628 87.8803L29.4358 72.5384Z" fill="#1646D9"/>
</svg>
